<?xml version="1.0" encoding="UTF-8" standalone="no"?>
<!DOCTYPE svg PUBLIC "-//W3C//DTD SVG 1.1//EN" "http://www.w3.org/Graphics/SVG/1.1/DTD/svg11.dtd">
<svg width="60" height="60" viewBox="0 0 3124 3619" version="1.1" xmlns="http://www.w3.org/2000/svg" xmlns:xlink="http://www.w3.org/1999/xlink" xml:space="preserve" xmlns:serif="http://www.serif.com/" style="fill-rule:evenodd;clip-rule:evenodd;stroke-linejoin:round;stroke-miterlimit:2;">
    <g transform="matrix(4.16667,0,0,4.16667,-2606.83,-2359.47)">
        <g>
            <path d="M1117.94,1046.71C1113.06,1046.46 1066.64,1043 1042,1000.77C1033.71,986.55 1018.93,984.542 1007.86,987.403C995.583,990.575 981.091,1001.53 980.637,1021.95C980.193,1041.92 992.627,1049.59 1000.08,1052.38C1012.61,1057.07 1027.17,1054.47 1033.96,1046.33C1034.01,1046.26 1034.06,1046.21 1034.12,1046.15C1034.25,1046 1034.38,1045.86 1034.52,1045.72C1034.63,1045.6 1034.75,1045.49 1034.87,1045.38C1034.98,1045.28 1035.1,1045.17 1035.22,1045.07C1035.38,1044.94 1035.53,1044.82 1035.69,1044.7C1035.75,1044.65 1035.81,1044.6 1035.87,1044.56C1035.92,1044.53 1035.96,1044.5 1036,1044.48C1036.18,1044.35 1036.36,1044.24 1036.54,1044.13C1036.65,1044.07 1036.76,1044 1036.87,1043.95C1037.04,1043.85 1037.21,1043.77 1037.39,1043.69C1037.52,1043.62 1037.65,1043.56 1037.78,1043.51C1037.94,1043.44 1038.09,1043.39 1038.25,1043.33C1038.4,1043.27 1038.56,1043.22 1038.72,1043.17C1038.86,1043.13 1039,1043.09 1039.14,1043.05C1039.31,1043.01 1039.49,1042.96 1039.67,1042.93C1039.8,1042.9 1039.94,1042.88 1040.07,1042.86C1040.25,1042.83 1040.44,1042.8 1040.62,1042.78C1040.76,1042.77 1040.9,1042.76 1041.05,1042.75C1041.22,1042.74 1041.39,1042.73 1041.56,1042.73C1041.73,1042.73 1041.89,1042.74 1042.05,1042.75C1042.2,1042.75 1042.35,1042.76 1042.51,1042.77C1042.69,1042.79 1042.87,1042.81 1043.04,1042.84C1043.18,1042.86 1043.31,1042.87 1043.45,1042.9C1043.63,1042.93 1043.82,1042.98 1044.01,1043.02C1044.13,1043.05 1044.26,1043.08 1044.38,1043.12C1044.56,1043.17 1044.74,1043.23 1044.92,1043.29C1045.05,1043.33 1045.18,1043.38 1045.31,1043.43C1045.47,1043.49 1045.62,1043.56 1045.78,1043.63C1045.92,1043.7 1046.07,1043.77 1046.22,1043.84C1046.35,1043.91 1046.47,1043.98 1046.6,1044.05C1046.77,1044.15 1046.94,1044.25 1047.1,1044.36C1047.2,1044.42 1047.3,1044.49 1047.4,1044.57C1047.58,1044.69 1047.75,1044.82 1047.92,1044.96C1047.96,1044.99 1048,1045.01 1048.04,1045.04C1048.1,1045.09 1048.15,1045.15 1048.2,1045.19C1048.36,1045.33 1048.51,1045.47 1048.65,1045.61C1048.76,1045.72 1048.87,1045.83 1048.97,1045.94C1049.09,1046.06 1049.2,1046.19 1049.3,1046.32C1049.43,1046.46 1049.54,1046.62 1049.66,1046.77C1049.71,1046.83 1049.76,1046.89 1049.81,1046.96C1120.98,1147.78 1234.55,1208.29 1263.08,1222.41L1375.36,1071.31L1117.94,1046.71Z" style="fill-rule:nonzero;"/>
            <path d="M902.94,1280.28C893.995,1286.1 880.64,1287.73 880.64,1287.73L846.64,1354.73L1042.64,1434.73L1258.64,1434.73L1213.03,1338.53L902.94,1280.28Z" style="fill-rule:nonzero;"/>
            <path d="M1011.39,775.307L992.64,780.727C992.64,780.727 994.64,730.727 959.64,732.727C959.64,732.727 1020.13,726.897 1011.39,775.307ZM1192.93,978.442C1198.05,976.391 1203.87,978.885 1205.92,984.013L1213.92,1004.01C1215.98,1009.14 1213.48,1014.96 1208.35,1017.01C1207.14,1017.5 1205.88,1017.73 1204.64,1017.73C1200.67,1017.73 1196.92,1015.35 1195.35,1011.44L1187.35,991.441C1185.3,986.313 1187.8,980.494 1192.93,978.442ZM1237.73,960.524C1242.81,958.364 1248.68,960.734 1250.84,965.815L1267.84,1005.82C1270,1010.9 1267.63,1016.77 1262.55,1018.93C1261.27,1019.47 1259.95,1019.73 1258.64,1019.73C1254.75,1019.73 1251.05,1017.45 1249.44,1013.64L1232.44,973.639C1230.28,968.556 1232.65,962.684 1237.73,960.524ZM1279.73,934.521C1284.82,932.364 1290.69,934.738 1292.85,939.822L1320.85,1005.82C1323,1010.91 1320.63,1016.78 1315.54,1018.93C1314.27,1019.47 1312.95,1019.73 1311.64,1019.73C1307.75,1019.73 1304.05,1017.44 1302.43,1013.63L1274.43,947.632C1272.28,942.548 1274.65,936.678 1279.73,934.521ZM1177.31,1311.47C1138.66,1272.77 1158.89,1253.74 1172.13,1246.44C1189.45,1240.11 1205.83,1232.07 1221.03,1222.54C1208.99,1215.6 1194.89,1206.97 1179.56,1196.65C1139.34,1169.58 1083.35,1125.61 1039.87,1067.28C1032.15,1072.09 1022.63,1074.66 1012.79,1074.66C1006.2,1074.66 999.474,1073.51 993.061,1071.11C972.244,1063.31 960.125,1044.76 960.642,1021.5C961.299,991.938 982.314,973.347 1002.85,968.04C1025.66,962.141 1047.81,971.034 1059.28,990.688C1079.09,1024.65 1117.41,1026.67 1119.03,1026.74C1119.21,1026.74 1119.42,1026.76 1119.59,1026.77L1372.46,1050.94L1296.78,877.906C1292.87,884.282 1286.37,892.307 1275.61,901.745C1243.66,929.765 1187.97,958.486 1110.09,987.113C1108.95,987.531 1107.79,987.73 1106.64,987.73C1102.57,987.73 1098.74,985.223 1097.25,981.177C1095.35,975.993 1098.01,970.247 1103.19,968.341C1213.48,927.803 1256.15,894.983 1272.56,876.701C1226.06,825.951 1156.67,793.727 1079.12,793.727C1064.99,793.727 1051.14,794.81 1037.64,796.866L1037.64,776.739C1056.29,776.41 1135.02,770.587 1159.64,696.727C1187.64,612.727 1107.64,532.727 971.64,580.727C971.64,580.727 1015.14,590.227 984.14,604.227C953.14,618.227 785.14,566.227 735.14,695.227C685.14,824.227 753.64,886.727 747.64,964.727C739.739,1067.38 625.64,1035.73 625.64,1035.73C625.64,1035.73 752.029,1165.03 818.319,1097.14C811.56,1075.01 808.069,1051.87 808.069,1028.23C808.069,974.327 826.209,923.037 859.799,880.337C866.31,836.607 883.339,792.947 925.549,794.977C902.499,786.987 864.879,782.857 829.64,818.727C773.64,875.727 825.64,818.727 825.64,818.727C825.64,818.727 900.659,699.887 952.739,801.507C952.854,801.553 952.965,801.595 953.079,801.641L963.181,819.649C886.131,856.384 832.063,928.584 826.19,1012.93C825.946,1014.46 825.79,1016.1 825.741,1017.87C825.677,1020.21 825.668,1022.55 825.685,1024.89C825.668,1026 825.64,1027.11 825.64,1028.23C825.64,1056.97 831.24,1084.5 841.47,1109.95C863.547,1175.24 901.783,1231.42 909.63,1261.19L1177.31,1311.47Z" style="fill-rule:nonzero;"/>
        </g>
    </g>
</svg>
